<?xml version="1.0" encoding="utf-8"?>
<!-- (C) Claudio Z. 2024 - www.cloudofoz.com  -->
<svg version="1.1" id="Layer_3" xmlns="http://www.w3.org/2000/svg" xmlns:xlink="http://www.w3.org/1999/xlink" x="0px" y="0px"
	 viewBox="0 0 16 16" style="enable-background:new 0 0 16 16;" xml:space="preserve">
<style type="text/css">
	.st0{fill:#FC807F;stroke:#FC807F;stroke-width:0.25;stroke-miterlimit:10;}
	.st1{fill:none;stroke:#FC807F;stroke-width:1.25;stroke-linecap:round;stroke-miterlimit:10;}
</style>
<g>
	<path class="st0" d="M8.9,6.6H6v2.9h2.9v-1L10,8.8v0.5c0,0.4-0.1,0.7-0.2,0.9c-0.2,0.2-0.5,0.2-0.9,0.2H6.1c-0.5,0-0.8-0.1-0.9-0.2
		C5,10.1,4.9,9.8,4.9,9.3V6.9C4.9,6.5,5,6.2,5.1,6s0.5-0.2,0.9-0.2h2.8c0.4,0,0.8,0.1,0.9,0.2S10,6.5,10,6.9v0.4L8.9,7.5V6.6z"/>
</g>
<polygon class="st1" points="14.9,15.2 14.9,1 11.1,1 13.6,4.6 11,8 13.6,11.4 11,15.2 "/>
<polygon class="st1" points="1.2,15.2 1.2,1 2.4,1 4.4,4.7 2.5,8.1 4.4,11.5 2.4,15.2 "/>
</svg>
